<?xml version="1.0" encoding="UTF-8"?>
<svg id="Layer_1" data-name="Layer 1" xmlns="http://www.w3.org/2000/svg" viewBox="0 0 500 400">
  <defs>
    <style>
      .cls-1 {
        fill: #ffd5d6;
      }

      .cls-1, .cls-2, .cls-3, .cls-4, .cls-5, .cls-6, .cls-7, .cls-8, .cls-9, .cls-10, .cls-11, .cls-12, .cls-13, .cls-14, .cls-15, .cls-16, .cls-17, .cls-18, .cls-19, .cls-20 {
        stroke-width: 0px;
      }

      .cls-2 {
        fill: #f7b2a0;
      }

      .cls-3 {
        fill: #cbe9f4;
      }

      .cls-4 {
        fill: #ffb502;
      }

      .cls-5 {
        fill: #f7c9cc;
      }

      .cls-6 {
        fill: #4ca1bf;
      }

      .cls-7 {
        fill: #6d76a1;
      }

      .cls-8 {
        fill: #848fb7;
      }

      .cls-9 {
        fill: #464f72;
      }

      .cls-10 {
        fill: #c1e4fa;
      }

      .cls-11 {
        fill: #fff;
      }

      .cls-12 {
        fill: #3c93aa;
      }

      .cls-13 {
        fill: #ffe7e7;
      }

      .cls-14 {
        fill: #1d1b3a;
      }

      .cls-15 {
        fill: #27355c;
      }

      .cls-16 {
        fill: #1c2745;
      }

      .cls-17 {
        fill: #64b4d7;
      }

      .cls-18 {
        fill: #eda503;
      }

      .cls-19 {
        fill: #fbc6b4;
      }

      .cls-20 {
        fill: #ffcf03;
      }
    </style>
  </defs>
  <g>
    <path class="cls-3" d="m368.6,159.38c-.4,9.34-8.3,16.57-17.63,16.17-9.35-.41-16.59-8.3-16.21-17.65.42-9.34,8.32-16.57,17.66-16.18,9.34.4,16.6,8.3,16.19,17.65Z"/>
    <path class="cls-3" d="m410.58,149.24c-5.33-4.75-8.15-12.82-7.1-19.66.66-4.28,12.69-11.73,12.69-11.73l-17.95-19.5s-8.42,11.42-12.73,11.71c-6.59.48-14.03-2.9-18.04-8.4-2.55-3.5.74-17.26.74-17.26l-26.51-1.14s2.08,14.01-.74,17.26c-3.91,4.5-10.88,6.78-16.57,5.64-4.24-.84-11.1-13.21-11.1-13.21l-20.31,17.05s10.99,8.91,11.11,13.22c.18,7.25-3.68,15.23-9.75,19.55-3.52,2.52-17.28-.96-17.28-.96l-1.48,26.49s14.01-1.92,17.22.94c5.33,4.77,8.16,12.84,7.1,19.67-.66,4.27-12.71,11.71-12.71,11.71l17.95,19.5s8.41-11.39,12.73-11.7c6.57-.47,14.05,2.92,18.05,8.4,2.55,3.5-.73,17.25-.73,17.25l26.49,1.14s-2.09-14.01.73-17.26c3.92-4.49,10.9-6.78,16.6-5.64,4.22.86,11.1,13.22,11.1,13.22l20.3-17.06s-10.99-8.91-11.12-13.22c-.17-7.24,3.68-15.22,9.75-19.56,3.53-2.49,17.29.98,17.29.98l1.47-26.49s-14,1.9-17.22-.97Zm-60.77,53.29c-24.23-1.04-43.04-21.54-41.99-45.78,1.05-24.23,21.54-43.03,45.78-41.99,24.23,1.05,43.05,21.54,41.99,45.79-1.04,24.23-21.53,43.04-45.78,41.99Z"/>
    <path class="cls-3" d="m385.25,160.69c-.79,18.52-16.46,32.9-34.99,32.09-18.51-.8-32.88-16.46-32.08-34.97.79-18.54,16.46-32.9,34.98-32.11,18.53.81,32.9,16.47,32.09,35Z"/>
  </g>
  <g>
    <path class="cls-3" d="m140.24,251.78c-.39,9.34-8.3,16.57-17.63,16.17-9.35-.41-16.59-8.3-16.21-17.65.42-9.34,8.32-16.57,17.65-16.18,9.34.4,16.6,8.3,16.19,17.65Z"/>
    <path class="cls-3" d="m182.22,241.64c-5.33-4.75-8.15-12.82-7.1-19.66.66-4.28,12.69-11.73,12.69-11.73l-17.95-19.5s-8.42,11.42-12.73,11.71c-6.59.48-14.03-2.9-18.04-8.4-2.55-3.5.74-17.26.74-17.26l-26.51-1.15s2.08,14.01-.74,17.26c-3.91,4.5-10.88,6.78-16.57,5.64-4.24-.84-11.1-13.21-11.1-13.21l-20.31,17.05s10.99,8.91,11.11,13.22c.18,7.25-3.68,15.23-9.75,19.55-3.52,2.52-17.27-.96-17.27-.96l-1.48,26.49s14.01-1.92,17.22.94c5.33,4.77,8.17,12.84,7.1,19.67-.66,4.27-12.7,11.71-12.7,11.71l17.95,19.5s8.41-11.39,12.73-11.7c6.57-.47,14.05,2.92,18.05,8.4,2.54,3.5-.73,17.25-.73,17.25l26.49,1.15s-2.09-14.01.73-17.26c3.92-4.49,10.9-6.78,16.6-5.64,4.22.86,11.1,13.22,11.1,13.22l20.3-17.06s-10.99-8.91-11.12-13.22c-.17-7.24,3.68-15.22,9.75-19.56,3.53-2.49,17.29.98,17.29.98l1.47-26.49s-14,1.9-17.22-.97Zm-60.77,53.29c-24.23-1.04-43.04-21.54-41.99-45.78,1.05-24.23,21.54-43.03,45.78-41.99,24.23,1.05,43.06,21.54,41.99,45.79-1.04,24.23-21.53,43.04-45.78,41.99Z"/>
    <path class="cls-3" d="m156.89,253.09c-.79,18.52-16.46,32.9-34.99,32.09-18.51-.8-32.88-16.46-32.08-34.97.79-18.54,16.46-32.9,34.98-32.11,18.53.81,32.9,16.47,32.09,35Z"/>
  </g>
  <path class="cls-13" d="m269.21,319.77c9.95-8.11,11.89-24.04,4.35-35.55-6.08-9.29-16.48-12.87-25.49-9.66-.73-1.47-1.54-2.92-2.45-4.31-11.17-17.08-32.18-21.16-46.91-9.14-7.22,5.89-11.59,14.56-12.86,23.88-3.57-.17-7.16.91-10.22,3.41-7.34,5.99-8.78,17.75-3.21,26.25,5.57,8.51,16.04,10.55,23.38,4.56.14-.12.26-.24.4-.36,11.7,12.71,29.83,14.81,42.98,4.08,1.31-1.07,2.53-2.24,3.65-3.49,7.81,6.33,18.45,6.81,26.39.32Z"/>
  <path class="cls-13" d="m188.32,332.3c13.9-11.35,16.27-34.13,5.3-50.89-8.85-13.52-23.68-18.97-36.37-14.64-1.07-2.13-2.26-4.23-3.58-6.26-16.26-24.84-46.14-31.35-66.74-14.53-10.09,8.24-16.07,20.55-17.64,33.87-5.06-.35-10.13,1.09-14.4,4.58-10.27,8.38-12.02,25.2-3.91,37.58,8.1,12.39,22.99,15.63,33.25,7.25.2-.16.37-.34.55-.51,16.89,18.59,57.53,5.55,75.9-9.45,1.84-1.5-11.34,13.47-9.78,11.72,11.22,9.31,26.32,10.33,37.42,1.27Z"/>
  <path class="cls-13" d="m384.55,328.16c13.9-11.35,16.27-34.13,5.3-50.89-8.85-13.52-23.68-18.97-36.37-14.64-1.07-2.13-2.25-4.23-3.58-6.26-16.26-24.84-46.14-31.35-66.74-14.53-10.09,8.23-16.07,20.54-17.64,33.87-5.06-.35-10.13,1.09-14.4,4.58-10.27,8.38-12.02,25.2-3.91,37.58,8.1,12.38,22.99,15.63,33.25,7.25.2-.16.37-.34.55-.51,16.89,18.59,57.53,5.55,75.9-9.44,1.84-1.5-11.34,13.47-9.78,11.72,11.22,9.31,26.32,10.33,37.42,1.27Z"/>
  <path class="cls-13" d="m454.07,333.49c9.65-7.87,11.53-23.32,4.22-34.49-5.9-9.01-15.98-12.48-24.73-9.37-.71-1.43-1.49-2.83-2.38-4.18-10.84-16.56-31.21-20.53-45.51-8.86-7,5.71-11.24,14.12-12.47,23.16-3.46-.17-6.95.89-9.91,3.31-7.12,5.81-8.52,17.21-3.11,25.47,5.4,8.26,15.56,10.24,22.68,4.43.14-.11.26-.24.39-.35,11.35,12.33,28.94,14.37,41.69,3.96,1.28-1.04,2.45-2.17,3.54-3.38,7.58,6.14,17.89,6.6,25.6.31Z"/>
  <g>
    <g>
      <path class="cls-4" d="m260.94,68.07l-.48-1.58c-.03-.08,3.69-1.04,3.71-.94l.25,1.64c-.02-.09-3.5.8-3.48.89Z"/>
      <path class="cls-4" d="m256.1,70.35l-.84-1.41s.83-.5,1.69-.97c.87-.42,1.76-.82,1.76-.82l.59,1.54s-.82.36-1.63.75c-.79.43-1.57.9-1.57.9Z"/>
      <path class="cls-4" d="m251.94,73.81l-1.15-1.14c-.1-.12,2.85-2.72,2.9-2.65l.96,1.33c-.05-.07-2.8,2.35-2.71,2.46Z"/>
      <path class="cls-4" d="m248.92,78.43l-1.39-.77s.07-.25.26-.58c.18-.33.42-.77.66-1.21.23-.46.52-.86.74-1.17.22-.31.36-.51.36-.51l1.25,1.02s-.13.19-.33.48c-.2.28-.48.66-.69,1.08-.22.41-.45.82-.61,1.13-.17.31-.24.54-.24.54Z"/>
      <path class="cls-4" d="m247.45,83.86l-1.52-.36c.19-1.19.4-2.4.75-3.56l.12-.43,1.45.64-.12.4c-.33,1.07-.51,2.19-.69,3.31Z"/>
      <path class="cls-4" d="m246.8,89.62l-1.54-.17s.09-.99.18-1.98c.1-.99.21-1.98.21-1.98l1.54.22s-.11.97-.21,1.95c-.09.98-.18,1.96-.18,1.96Z"/>
      <polygon class="cls-4" points="246.37 95.49 244.82 95.37 245.1 91.4 246.65 91.54 246.37 95.49"/>
    </g>
    <g>
      <polygon class="cls-4" points="245.97 101.39 244.43 101.26 244.69 97.3 246.23 97.43 245.97 101.39"/>
      <polygon class="cls-4" points="245.55 107.36 244.01 107.07 244.3 103.19 245.84 103.33 245.55 107.36"/>
      <polygon class="cls-4" points="245 113.47 243.51 112.74 243.86 108.93 245.38 109.37 245 113.47"/>
      <path class="cls-4" d="m244.27,119.53l-1.41-1.15.46-3.79,1.46.87s-.12,1.02-.24,2.04c-.13,1.01-.27,2.02-.27,2.02Z"/>
      <path class="cls-4" d="m243.27,125.52l-1.3-1.52s.17-.94.34-1.87c.14-.95.29-1.89.29-1.89l1.37,1.28s-.16,1.01-.33,2.01c-.18,1-.37,2-.37,2Z"/>
      <path class="cls-4" d="m241.92,131.37l-1.15-1.83s.22-.92.45-1.85c.2-.93.4-1.86.4-1.86l1.25,1.63s-.23.99-.45,1.97c-.25.97-.51,1.94-.51,1.94Z"/>
      <path class="cls-4" d="m240.01,136.98l-.97-2.07s.36-.88.65-1.77c.32-.89.58-1.81.58-1.81l1.09,1.92s-.28.96-.63,1.88c-.32.95-.71,1.86-.71,1.86Z"/>
    </g>
    <g>
      <path class="cls-4" d="m237.29,142.15l-.75-2.25s.48-.8.96-1.6c.41-.84.83-1.69.83-1.69l.9,2.14s-.45.87-.9,1.74c-.52.83-1.04,1.66-1.04,1.66Z"/>
      <path class="cls-4" d="m233.27,146.24l-.5-2.39s.73-.55,1.42-1.14c.63-.68,1.29-1.32,1.26-1.35l.68,2.3s-.15.19-.41.45c-.25.26-.6.6-.93.94-.75.61-1.52,1.19-1.52,1.19Z"/>
      <path class="cls-4" d="m227.96,147.97l-.2-2.45c0,.05.89-.11,1.77-.25.86-.24,1.7-.57,1.7-.57l.4,2.41s-.89.34-1.8.58c-.93.14-1.86.32-1.87.27Z"/>
      <path class="cls-4" d="m222.5,146.88l.1-2.44s.83.35,1.67.69c.88.18,1.75.37,1.75.37l.1,2.44s-.93-.18-1.85-.37c-.88-.35-1.76-.69-1.76-.69Z"/>
      <path class="cls-4" d="m218.09,143.25l.37-2.35s.6.71,1.24,1.38c.34.31.69.61.95.83.26.23.44.37.44.37l-.2,2.42s-.19-.14-.46-.38c-.27-.24-.64-.55-1.01-.86-.69-.68-1.33-1.41-1.33-1.41Z"/>
      <path class="cls-4" d="m214.82,138.44l.6-2.21s.42.84.93,1.63c.46.82,1.02,1.58,1.02,1.58l-.45,2.31s-.59-.78-1.09-1.63c-.55-.81-1.01-1.68-1.01-1.68Z"/>
      <path class="cls-4" d="m212.22,133.12l.81-2s.37.87.74,1.75c.4.86.79,1.72.79,1.72l-.67,2.15s-.43-.89-.87-1.78c-.42-.9-.81-1.82-.81-1.82Z"/>
    </g>
    <g>
      <path class="cls-4" d="m210,127.55l1.01-1.7s.33.89.65,1.78c.34.89.69,1.77.69,1.77l-.88,1.92s-.37-.93-.75-1.87c-.35-.95-.71-1.89-.71-1.89Z"/>
      <polygon class="cls-4" points="207.96 121.84 209.14 120.51 210.38 124.1 209.32 125.69 207.96 121.84"/>
      <polygon class="cls-4" points="205.96 116.08 207.28 115.16 208.53 118.75 207.3 119.94 205.96 116.08"/>
      <path class="cls-4" d="m203.88,110.42l1.43-.64s.35.92.71,1.83c.33.89.66,1.78.66,1.78l-1.38.78s-.35-.96-.71-1.92c-.35-.93-.71-1.85-.71-1.85Z"/>
      <path class="cls-4" d="m201.61,105.08l1.38-.74s.42.9.82,1.81c.38.92.77,1.83.77,1.83l-1.42.66s-.38-.9-.76-1.8c-.4-.88-.8-1.76-.8-1.76Z"/>
      <path class="cls-4" d="m198.94,100.01l1.3-.9s.5.86,1,1.72c.46.88.91,1.77.91,1.77l-1.36.78s-.44-.85-.88-1.71c-.48-.83-.97-1.65-.97-1.65Z"/>
      <path class="cls-4" d="m195.65,95.47l1.11-1.15s.63.77,1.26,1.54c.33.38.6.79.81,1.1.21.31.36.52.36.52l-1.25.97s-.13-.19-.33-.49c-.19-.29-.46-.69-.77-1.04-.59-.73-1.18-1.45-1.18-1.45Z"/>
    </g>
    <g>
      <path class="cls-4" d="m191.48,92.02l.74-1.46c.07-.1,3.25,2.28,3.17,2.37l-1.02,1.25c.06-.1-2.84-2.27-2.89-2.16Z"/>
      <path class="cls-4" d="m186.55,90.22l.2-1.64s.96.21,1.91.43c.48.07.92.32,1.27.44.34.14.57.23.57.23l-.58,1.54s-.2-.09-.51-.21c-.31-.1-.71-.33-1.14-.39-.86-.2-1.72-.4-1.72-.4Z"/>
      <path class="cls-4" d="m181.33,90.38l-.32-1.63c.04-.11,3.84-.45,3.86-.3l-.03,1.66s-.22-.01-.55-.04c-.33.02-.78.06-1.22.1-.44.03-.88.07-1.21.1-.24.03-.54.11-.52.11Z"/>
      <path class="cls-4" d="m176.65,92.53l-.95-1.32s.76-.69,1.66-1.13c.85-.54,1.84-.83,1.84-.83l.44,1.59s-.8.23-1.55.71c-.79.37-1.42,1.02-1.44.98Z"/>
      <path class="cls-4" d="m173.37,96.77l-1.36-.82s.12-.23.29-.56c.2-.32.47-.76.74-1.19.56-.85,1.23-1.62,1.23-1.62l1.12,1.15s-.58.68-1.09,1.45c-.25.39-.49.78-.67,1.08-.16.31-.26.52-.26.52Z"/>
      <path class="cls-4" d="m171.38,102.05l-1.48-.48s.24-.98.58-1.93c.3-.96.7-1.89.7-1.89l1.42.68s-.38.86-.66,1.78c-.33.89-.56,1.84-.56,1.84Z"/>
      <path class="cls-4" d="m170.16,107.71l-1.52-.31s.15-.99.36-1.97c.18-.98.42-1.96.42-1.96l1.5.41s-.22.94-.41,1.9c-.2.96-.35,1.93-.35,1.93Z"/>
    </g>
    <g>
      <polygon class="cls-4" points="169.33 113.51 167.79 113.28 168.33 109.33 169.86 109.6 169.33 113.51"/>
      <polygon class="cls-4" points="168.66 119.37 167.12 119.15 167.56 115.21 169.1 115.42 168.66 119.37"/>
      <polygon class="cls-4" points="167.93 125.24 166.4 124.99 166.89 121.07 168.43 121.29 167.93 125.24"/>
      <path class="cls-4" d="m166.98,131.11l-1.51-.35s.17-.96.35-1.92c.15-.97.31-1.94.31-1.94l1.53.28s-.16.98-.32,1.97c-.18.98-.36,1.97-.36,1.97Z"/>
      <path class="cls-4" d="m165.55,136.9l-1.47-.53s.27-.93.53-1.86c.23-.95.46-1.89.46-1.89l1.51.4s-.24.97-.47,1.95c-.28.96-.56,1.93-.56,1.93Z"/>
      <path class="cls-4" d="m163.28,142.46l-1.34-.84s.42-.85.82-1.7c.36-.89.71-1.77.71-1.77l1.44.62s-.37.94-.75,1.87c-.44.91-.89,1.82-.89,1.82Z"/>
      <polygon class="cls-4" points="159.82 147.27 158.69 146.13 159.92 144.67 161.01 143.19 162.27 144.16 161.1 145.75 159.82 147.27"/>
    </g>
    <g>
      <path class="cls-4" d="m155.64,151.32l-.93-1.33s.73-.56,1.4-1.2c.68-.64,1.33-1.31,1.33-1.31l1.08,1.2s-.68.7-1.4,1.37c-.71.68-1.49,1.28-1.49,1.28Z"/>
      <path class="cls-4" d="m150.53,154.17l-.43-1.6s.83-.24,1.62-.65c.79-.4,1.55-.88,1.55-.88l.81,1.42s-.83.53-1.71.98c-.89.45-1.85.73-1.85.73Z"/>
      <path class="cls-4" d="m144.62,153.95l.56-1.54s.78.32,1.61.46c.83.12,1.68.03,1.68.04l.14,1.66s-1.01.1-2.03-.04c-1.02-.16-1.97-.57-1.97-.57Z"/>
      <path class="cls-4" d="m139.96,150.1l1.2-1.04s.55.75,1.2,1.37c.62.64,1.35,1.14,1.35,1.14l-.84,1.39s-.85-.59-1.56-1.32c-.74-.72-1.34-1.54-1.34-1.54Z"/>
      <path class="cls-4" d="m137.04,144.83l1.42-.67c-.07.04,1.62,3.44,1.7,3.38l-1.3.9c-.09.05-1.9-3.58-1.82-3.62Z"/>
      <path class="cls-4" d="m135.18,139.12l1.5-.42s.23.94.5,1.87c.28.92.59,1.84.59,1.84l-1.45.57s-.33-.95-.62-1.92c-.29-.97-.52-1.94-.52-1.94Z"/>
      <path class="cls-4" d="m134.09,133.22l1.54-.22s.12.97.28,1.93c.17.96.35,1.91.35,1.91l-1.51.35s-.18-.99-.36-1.99c-.17-.99-.29-1.99-.29-1.99Z"/>
    </g>
  </g>
  <path class="cls-1" d="m192.53,333.68c8.03-6.54,9.8-19.08,3.97-27.98-4.7-7.18-12.91-9.8-20.13-7.12-.56-1.14-1.18-2.26-1.89-3.34-8.64-13.2-25.28-16.03-37.16-6.32-5.83,4.75-9.42,11.64-10.57,18.97-2.83-.07-5.71.85-8.17,2.86-5.92,4.83-7.24,14.08-2.93,20.66,4.3,6.58,12.6,7.99,18.52,3.16.12-.09.21-.2.32-.29,9.12,9.76,23.5,11.08,34.11,2.43,1.06-.87,2.04-1.8,2.96-2.8,6.12,4.82,14.57,5.01,20.97-.22Z"/>
  <path class="cls-1" d="m398.75,331.82c8.52-6.95,10.19-20.59,3.73-30.46-5.21-7.96-14.12-11.03-21.84-8.28-.63-1.26-1.32-2.5-2.1-3.69-9.57-14.63-27.57-18.13-40.2-7.83-6.19,5.05-9.93,12.47-11.01,20.46-3.06-.14-6.14.78-8.75,2.92-6.29,5.13-7.53,15.2-2.75,22.49,4.77,7.29,13.74,9.04,20.03,3.91.12-.1.23-.21.34-.31,10.02,10.89,25.56,12.69,36.82,3.5,1.12-.92,2.16-1.92,3.13-2.98,6.69,5.42,15.8,5.83,22.61.28Z"/>
  <path class="cls-5" d="m473.05,330.22c0,8.38-99.86,15.18-223.05,15.18s-223.05-6.8-223.05-15.18,99.86-15.18,223.05-15.18,223.05,6.8,223.05,15.18Z"/>
  <path class="cls-9" d="m68.29,158.18l.91-.86,3.65,3.87c1.09,1.15,2.91,1.21,4.07.13l3.12-2.91c.81-.76,1.86-1.15,2.97-1.11,1.11.04,2.13.51,2.88,1.32l2.4,2.58c.53.57,1.25.9,2.03.92.78.03,1.52-.27,2.08-.8l2.72-2.62c.84-.8,1.94-1.21,3.09-1.15,1.14.06,2.22.6,2.94,1.47l1.49,1.77c.55.65,1.34,1.02,2.18,1.03.85,0,1.65-.35,2.21-.98l3.3-3.77.94.83-3.3,3.77c-.8.91-1.95,1.42-3.16,1.41-1.21-.02-2.34-.56-3.12-1.48l-1.48-1.77c-.52-.61-1.25-.98-2.06-1.02-.81-.04-1.57.25-2.16.8l-2.73,2.62c-.8.78-1.86,1.18-2.98,1.15-1.12-.03-2.16-.5-2.92-1.32l-2.4-2.58c-.53-.56-1.25-.89-2.01-.92-.77-.03-1.51.24-2.07.77l-3.12,2.9c-1.66,1.55-4.28,1.46-5.83-.19l-3.66-3.87Z"/>
  <g>
    <path class="cls-4" d="m336.06,160.05c.36-43.28-34.44-78.65-77.71-79.01-43.27-.35-78.64,34.43-79.01,77.71-.19,23.55,17.5,39.28,26.36,59.24,6.76,15.2,6.48,66.55,6.48,66.55l88.96.74s.56-51.34,7.57-66.43c9.19-19.81,27.15-35.24,27.35-58.79Z"/>
    <path class="cls-20" d="m317.66,155.26c-.28,33.69-27.83,60.79-61.52,60.51-33.7-.29-60.79-27.84-60.51-61.53.28-33.69,27.83-60.78,61.52-60.5,33.7.28,60.8,27.83,60.52,61.52Z"/>
    <polygon class="cls-9" points="241.67 257.75 221.34 173.37 291.63 173.96 270.63 257.99 267.06 257.09 286.91 177.6 226.02 177.09 245.24 256.9 241.67 257.75"/>
    <rect class="cls-17" x="226.45" y="240.35" width="60.43" height="93.21" transform="translate(-32.39 541.24) rotate(-89.53)"/>
    <path class="cls-10" d="m311.87,271.24c-.02,2.7-2.23,4.88-4.95,4.85l-102.58-.85c-2.7-.02-4.87-2.23-4.86-4.94h0c.02-2.71,2.24-4.89,4.94-4.86l102.57.86c2.71.02,4.89,2.23,4.87,4.94h0Z"/>
    <path class="cls-10" d="m311.75,285.29c-.03,2.7-2.23,4.87-4.95,4.85l-102.57-.85c-2.71-.02-4.89-2.23-4.86-4.94h0c.03-2.71,2.23-4.87,4.94-4.86l102.58.85c2.71.03,4.88,2.23,4.86,4.94h0Z"/>
    <path class="cls-10" d="m311.63,299.33c-.02,2.71-2.23,4.88-4.95,4.86l-102.57-.85c-2.71-.02-4.88-2.24-4.85-4.94h0c.02-2.7,2.23-4.88,4.94-4.86l102.56.85c2.72.02,4.89,2.24,4.87,4.94h0Z"/>
    <path class="cls-17" d="m292.27,317.46c-.04,3.97-3.28,7.17-7.24,7.14l-57.87-.48c-3.95-.04-7.15-3.29-7.12-7.25h0c.03-3.96,3.28-7.14,7.24-7.11l57.87.48c3.96.03,7.15,3.27,7.12,7.23h0Z"/>
    <path class="cls-10" d="m311.99,257.19c-.03,2.7-2.24,4.87-4.96,4.86l-102.57-.85c-2.71-.02-4.88-2.24-4.86-4.93h0c.02-2.71,2.22-4.89,4.94-4.86l102.57.85c2.72.02,4.89,2.23,4.87,4.94h0Z"/>
  </g>
  <rect class="cls-15" x="409.36" y="234.79" width="30.69" height="1.19"/>
  <rect class="cls-15" x="421.59" y="230.84" width="17.71" height="1.19"/>
  <g>
    <g>
      <path class="cls-19" d="m92.03,208.66c.84-1.08,4.28-3.3,7.71-1.46,4.58,2.46,10.43,11.3,17.6,11.06,7.2-.24,9.45-4.53,11.35-7.2,1.89-2.68,1.39-4.63,2.67-6.06,1.28-1.44,2.91.15.91,5.17-.96,2.4-4.28,14.82-12.77,16.68-11.13,2.44-32.37-11.75-27.45-18.19Z"/>
      <path class="cls-18" d="m93.15,206.2s-4.28,3.75,1.13,10.28c5.41,6.53,8.67,8.62,8.67,8.62,0,0,5.12-2.13,9.31-9.76,0,0-13.83-15.3-19.1-9.15Z"/>
    </g>
    <path class="cls-4" d="m75.81,219.26c3.18,11.74,1.42,19.99,0,24.46,3.31,1.07,1.34,2.84,1.25,3.06-4.69,9.72,24.43,3.96,29.55-3.91,1.76-2.7.08-6.14.39-11.34.11-1.17.14-2.35.16-3.51.14-5.32-.22-10.52-.96-14.06-2.29-10.73-12.38-11.25-18.51-10.39-2.79.38-6.42.86-9.22,2.5v.02c-3.27,1.97-5.01,4.44-2.65,13.16Z"/>
    <path class="cls-16" d="m83.02,213.5c1.26,5.33,5.75,21.59-7.22,29.72,0,0,21.48,15.73,33.77,2.12,0,0-2.47-23.21-5.91-32.43-.99-2.65-3.6-10.78-8.32-9.61,0,0,8.29,13.05,4.51,16.5-3.78,3.45-7.35.55-9.02-2.05-2.67-4.18-5.53-13.84-5.53-13.84l-5.22.79s1.86,4.25,2.93,8.79Z"/>
    <g>
      <path class="cls-2" d="m87.16,195.8s2.75,4.32-.18,7.21c-3.01,2.95,10.82,8.17,10.15,5.51-.86-3.43-2.9-5.26-1.72-9.48l-8.26-3.24Z"/>
      <path class="cls-19" d="m93.37,186.1c3.33,2.41,8.08,14.27,5.33,17.37-1.22,1.35-6.96.73-11.18-4.2-1.74-2.02-4.06-5.94-2.36-10.4.78-2.03,4.35-5.57,8.21-2.77Z"/>
      <path class="cls-14" d="m96.58,187.2c.85,1.46.71,1.83-3.84,3.13-4.54,1.3-5.38,1.1-4.76,2.13,1.8,3.08-1.58,2.86.61,6.51,2.18,3.66-2.01,1.81-4.12-1.14-.42-.6-2.77-3.45-1.13-8.56,1.9-5.96,10.09-7.42,13.24-2.08Z"/>
    </g>
    <path class="cls-18" d="m87.37,195.16s14.06-3.97,13.41-8.36c-.4-2.7-8.57-1.64-8.57-1.64l-4.84,10Z"/>
    <path class="cls-4" d="m96.58,187.2c-1.13,4.23-4.45,6.56-13.06,9.31,0,0-4.67-8.36,1.38-12.79,5.34-3.9,12.4.77,11.68,3.48Z"/>
    <g>
      <path class="cls-19" d="m77.68,205.46c1.25-.41,4.31-.11,5.97,3.2,2.24,4.43,1.98,14.54,7.71,18.27,5.75,3.74,9.86,1.63,12.81.58,2.94-1.06,3.61-2.85,5.39-3.28,1.79-.43,2.2,1.72-2.12,4.54-2.06,1.35-11.45,9.24-19.11,6.05-10.04-4.18-18.02-27.02-10.65-29.36Z"/>
      <path class="cls-18" d="m78.77,204.83s-5.41.6-4.74,8.66c.66,8.05,2.06,11.47,2.06,11.47,0,0,5.17,1.14,12.61-2.53,0,0-2.45-19.53-9.92-17.61Z"/>
    </g>
    <g>
      <path class="cls-19" d="m68.29,288.44c-2.92,11.41-6.33,35.77-.73,35.9,5.59.13,8.72-1.57,5.5-2.47-3.23-.91-3.36-1.26-3.26-2.17,1.39-11.77,19.78-30.11,21.35-44.09.53-4.78.89-9.14,1.14-12.98,2.09,10.24.55,21.11.73,24.71.59,12.78,3.33,36.95,9.45,37,6.53.05,9.73-1.76,5.56-2.62-3.61-.76-3.46-.93-3.39-1.82.88-12.91,7.14-36.78,8.34-52.11,1.39-17.7-42.15,10.68-44.69,20.66Z"/>
      <path class="cls-4" d="m99.02,321.44s4.87,1.93,7.88,0c0,0,5.49.74,2.04,2.07-3.46,1.34-10.12,2.45-9.92-2.07Z"/>
      <path class="cls-4" d="m65.18,321.87s4.87,1.92,7.87,0c0,0,5.49.75,2.03,2.08-3.45,1.34-10.11,2.45-9.9-2.08Z"/>
      <path class="cls-16" d="m108.64,237.71c-11.16,7.44-26.76,6.69-32.83,5.51-1.64,13.27-11.61,63.07-12.74,69.91,4.9,1.62,6.53,1.97,7.94,1.97,23.65-30.5,20.93-43.58,21.19-47.42.89,4.43-2.03,26.13,3.08,47.42,1.71,1.11,6.9,2.54,10.61,0,.19-1.36,7.13-25.81,6.98-44.94-.1-13.04-2.28-22-4.21-32.44Z"/>
    </g>
    <path class="cls-11" d="m76.59,254.46c6.94-2.2,7.55-9.06,7.56-9.12l-.92-.07c-.02.25-.58,6.31-6.92,8.32l.28.87Z"/>
    <path class="cls-11" d="m109.06,252.76l.28-.88c-6.36-2.01-6.91-8.26-6.92-8.32l-.92.07c0,.07.62,6.93,7.56,9.13Z"/>
  </g>
  <g>
    <g>
      <g>
        <path class="cls-19" d="m350.24,200.42c-.09-1.3-1.62-4.87-5.3-5.25-4.91-.5-14.22,3.35-19.74-.64-5.54-4.02-5.04-8.59-5.12-11.7-.06-3.12,1.37-4.39,1.12-6.19-.24-1.82-2.37-1.43-3.46,3.59-.52,2.4-4.51,13.95,1.19,19.93,7.47,7.84,31.74,7.96,31.3.26Z"/>
        <path class="cls-18" d="m350.67,197.89s1.37,5.24-6.35,7.5c-7.73,2.26-11.41,2.18-11.41,2.18,0,0-2.9-4.4-2.15-12.63,0,0,19.04-4.69,19.91,2.95Z"/>
      </g>
      <path class="cls-4" d="m362.78,191.56l-.02-.02c-2.94-.9-6.41-.53-9.07-.27-5.86.56-15.08,3.27-14.82,13.69.09,3.43.91,8.32,2.22,13.21.27,1.07.56,2.16.92,3.21,1.44,4.74.64,8.28,2.87,10.4,6.47,6.14,36.7,6.3,30.22-1.65-.13-.19-1.77-2.92.13-4.24-2.3-3.82-3.15-8.78-4.52-12.06-.4-.98-.75-1.98-1.04-3.03-.69-2.4-1.03-5.04-.95-8.21.2-7.04-2.49-9.92-5.93-11.02Z"/>
      <g>
        <path class="cls-19" d="m340.07,267.59c6.79,4.78,17.24,9.53,21.25,13.43.64.62.78.94-.83,3.44-1.63,2.48,1.54,1.97,5.23-1.26,3.69-3.24-13.7-19.43-22.72-26.27-7.89-5.99-10.82,5.12-2.92,10.66Z"/>
        <path class="cls-4" d="m365.79,280.04s-2.09,4.17-5.3,4.42c0,0-3.25,3.63-.1,2.68,3.16-.96,8.34-3.86,5.41-7.11Z"/>
      </g>
      <path class="cls-16" d="m360.19,199.42c.02,5.2-.91,13.39,11.81,17.14,0,0-14.96,28.01-29.32,18.15,0,0-2.84-22-1.7-31.29.33-2.66.91-9.91,6.39-10.74,0,0-5.6,13.92-1.35,16.28,4.26,2.35,6.92-1.12,7.89-3.89,1.55-4.45,5.03-14.1,5.03-14.1l3.39.44s-2.15,3.57-2.14,8Z"/>
      <g>
        <path class="cls-2" d="m356.72,183.2s-2.51,4.17.34,6.84c2.93,2.73-10.08,8.02-9.51,5.48.73-3.28,2.63-5.07,1.4-9.05l7.77-3.28Z"/>
        <path class="cls-19" d="m350.57,174.14c-3.1,2.37-7.33,13.76-4.63,16.64,1.19,1.25,6.63.53,10.52-4.27,1.6-1.95,3.71-5.74,1.99-9.94-.79-1.9-4.28-5.18-7.87-2.42Z"/>
        <path class="cls-14" d="m347.55,175.26c-.77,1.4-.63,1.76,3.72,2.88,4.34,1.14,5.14.91,4.58,1.92-1.64,2.96,1.57,2.68-.42,6.2-1.99,3.53,1.95,1.67,3.89-1.19.38-.58,2.54-3.35.86-8.15-1.95-5.62-9.76-6.8-12.62-1.65Z"/>
      </g>
      <path class="cls-18" d="m353.52,181.78s-10.48-2.6-9.97-6.79c.32-2.58,8.1-1.76,8.1-1.76l1.87,8.55Z"/>
      <path class="cls-4" d="m347.14,175.88c1.18,4,4.14,5.78,13.05,7.9,0,0,4.23-8.06-1.62-12.12-5.17-3.57-12.17,1.66-11.42,4.21Z"/>
      <path class="cls-16" d="m344.52,229.33s-21.89,12.7-24.45,20.31c-2.55,7.61,38.33,31.79,38.33,31.79,0,0,4.78-4.76,2.58-9.11-8.28-16.3-11.31-21.52-11.31-21.52l20.29-16.89-25.44-4.57Z"/>
      <g>
        <path class="cls-19" d="m365.02,276.02c2.5,7.91,7.93,18.03,8.75,23.57.13.88.05,1.22-2.75,2.23-2.8.99.03,2.5,4.92,2.17,4.9-.34.89-23.75-2.13-34.67-2.64-9.54-11.7-2.49-8.79,6.71Z"/>
        <path class="cls-4" d="m377.92,301.52s-4.2,2.06-6.91.3c0,0-4.79.92-1.71,2.07,3.09,1.16,8.97,1.99,8.61-2.37Z"/>
      </g>
      <path class="cls-16" d="m372,216.56s4.52,9.22,7.29,22.45c3.33,15.95.29,55.11.29,55.11,0,0,.69,1.25-9.07.03-2.63-.34-14.76-53.67-14.76-53.67l3.24-14.93,13-8.99Z"/>
      <path class="cls-11" d="m376.42,294.7c4.12-27.38-6.68-69.94-6.79-70.36l-.53.14c.11.43,10.89,42.87,6.78,70.15l.54.08Z"/>
      <g>
        <path class="cls-19" d="m367.15,195.38c-.49-1.15-2.6-3.16-6.01-2.3-4.57,1.15-11.67,7.63-17.92,5.84-6.27-1.8-7.31-6.07-8.39-8.83-1.07-2.77-.2-4.38-1-5.91-.81-1.56-2.6-.51-1.94,4.34.32,2.32.49,13.98,7.55,17.49,9.25,4.61,30.62-3.88,27.72-10.63Z"/>
        <path class="cls-18" d="m366.92,194.2s2.94,4.25-3.27,8.8c-6.19,4.54-9.52,5.67-9.52,5.67,0,0-4.03-3.01-6.03-10.64,0,0,15.54-10.4,18.82-3.83Z"/>
      </g>
    </g>
    <g>
      <polygon class="cls-9" points="363.12 322.92 365.13 322.11 328.3 231.3 349.87 231.3 387.03 322.92 389.04 322.11 351.33 229.13 325.08 229.13 363.12 322.92"/>
      <rect class="cls-9" x="343.25" y="269.96" width="23.91" height="2.17"/>
      <rect class="cls-9" x="348.03" y="281.16" width="23.91" height="2.17"/>
      <rect class="cls-9" x="352.17" y="292.48" width="23.91" height="2.17"/>
      <rect class="cls-9" x="357.36" y="304.02" width="23.91" height="2.17"/>
      <rect class="cls-9" x="289.62" y="288.39" width="70.59" height="2.17" transform="translate(-60.31 491.88) rotate(-69.42)"/>
      <rect class="cls-9" x="314.43" y="290.12" width="70.59" height="2.17" transform="translate(-45.82 516.26) rotate(-69.42)"/>
    </g>
    <g>
      <rect class="cls-17" x="269.1" y="171.84" width="47.45" height="7.64"/>
      <rect class="cls-6" x="269.1" y="171.84" width="9.77" height="7.64"/>
      <polygon class="cls-6" points="323.35 183.27 261.6 183.27 263.69 175.67 321.26 175.67 323.35 183.27"/>
      <rect class="cls-10" x="277.82" y="183.27" width="45.53" height="53.98"/>
      <rect class="cls-17" x="261.6" y="183.27" width="20.33" height="53.98"/>
      <polygon class="cls-12" points="281.92 183.27 280.35 175.67 263.69 175.67 261.6 183.27 281.92 183.27"/>
      <rect class="cls-8" x="264.56" y="189.98" width="14.31" height="8.55"/>
      <rect class="cls-9" x="266.33" y="191.07" width="10.77" height="1.05"/>
      <rect class="cls-9" x="266.33" y="192.9" width="10.77" height="1.05"/>
      <rect class="cls-9" x="266.33" y="194.77" width="10.77" height="1.05"/>
      <rect class="cls-9" x="266.33" y="196.61" width="10.77" height="1.05"/>
      <path class="cls-12" d="m315.52,198.77c0,6.8-5.51,12.3-12.3,12.3s-12.3-5.51-12.3-12.3,5.51-12.3,12.3-12.3,12.3,5.51,12.3,12.3Z"/>
      <path class="cls-17" d="m313.81,198.77c0,5.85-4.74,10.59-10.59,10.59s-10.59-4.74-10.59-10.59,4.74-10.59,10.59-10.59,10.59,4.74,10.59,10.59Z"/>
      <rect class="cls-12" x="290.87" y="212.92" width="25.68" height="2.93"/>
      <g>
        <polygon class="cls-7" points="311.5 234.05 295.91 234.05 303.71 218.47 311.5 234.05"/>
        <polygon class="cls-20" points="297.42 233 303.71 220.75 310 233 297.42 233"/>
        <polygon class="cls-7" points="302.43 231.98 302.31 226.46 303.74 228.38 304.12 223.51 304.15 229.85 303 228.26 302.43 231.98"/>
      </g>
    </g>
  </g>
  <path class="cls-17" d="m433.8,189.82c0-2.82,2.29-5.11,5.12-5.11s5.12,2.29,5.12,5.11-2.3,5.12-5.12,5.12-5.12-2.3-5.12-5.12Zm2.28,0c0,1.56,1.27,2.83,2.83,2.83s2.84-1.27,2.84-2.83-1.27-2.83-2.84-2.83-2.83,1.27-2.83,2.83Z"/>
  <path class="cls-10" d="m26.95,302.81c0,2.23,1.81,4.03,4.04,4.03s4.02-1.81,4.02-4.03-1.8-4.03-4.02-4.03-4.04,1.81-4.04,4.03Z"/>
  <path class="cls-4" d="m32.34,253.99c-.42-.56-.59-2.45-1.29-2.47-.69,0-.88,1.93-1.38,2.41-.5.48-2.5.59-2.47,1.29.03.7,2,.82,2.42,1.38.41.56.59,2.5,1.29,2.46.7-.03.83-1.99,1.38-2.41.56-.42,2.5-.59,2.47-1.29-.03-.69-2-.82-2.41-1.38Z"/>
  <g>
    <polygon class="cls-16" points="441.16 121.38 439.13 121.38 439.16 116.56 441.18 116.56 441.16 121.38"/>
    <rect class="cls-16" x="437.71" y="125.13" width="4.82" height="2.03" transform="translate(311.96 565.69) rotate(-89.74)"/>
    <rect class="cls-16" x="437.68" y="132.31" width="4.82" height="2.03" transform="translate(305.29 572.96) rotate(-89.81)"/>
    <rect class="cls-16" x="437.64" y="139.49" width="4.82" height="2.03" transform="translate(296.9 579.7) rotate(-89.66)"/>
    <rect class="cls-16" x="437.61" y="146.67" width="4.82" height="2.03" transform="translate(290.32 587.01) rotate(-89.74)"/>
    <rect class="cls-16" x="437.57" y="153.84" width="4.82" height="2.03" transform="translate(282.48 593.9) rotate(-89.66)"/>
    <rect class="cls-16" x="437.53" y="161.02" width="4.82" height="2.03" transform="translate(275.9 601.23) rotate(-89.74)"/>
  </g>
  <g>
    <polygon class="cls-9" points="175.38 204.21 160.37 188.74 145.8 204.2 144.46 202.94 160.35 186.08 176.7 202.92 175.38 204.21"/>
    <polygon class="cls-9" points="175.38 230.71 160.37 215.24 145.8 230.7 144.46 229.43 160.35 212.58 176.7 229.42 175.38 230.71"/>
    <polygon class="cls-9" points="175.38 259.85 160.37 244.39 145.8 259.84 144.46 258.58 160.35 241.73 176.7 258.57 175.38 259.85"/>
    <polygon class="cls-7" points="169.36 322.76 152.38 322.76 156.2 165.68 165.54 165.68 169.36 322.76"/>
    <polygon class="cls-9" points="165.12 318.01 156.63 318.01 158.54 165.68 163.21 165.68 165.12 318.01"/>
    <polygon class="cls-7" points="180.31 324.78 143.02 324.78 146.85 316.18 176.48 316.18 180.31 324.78"/>
    <rect class="cls-9" x="152.38" y="160.08" width="16.98" height="9.67"/>
    <rect class="cls-9" x="132.18" y="200.9" width="58.96" height="5.33"/>
    <rect class="cls-9" x="132.18" y="256.55" width="58.96" height="5.33"/>
    <rect class="cls-9" x="121.94" y="227.4" width="76.84" height="5.33"/>
    <rect class="cls-7" x="132.18" y="200.9" width="2.35" height="13.01"/>
    <rect class="cls-7" x="188.8" y="200.9" width="2.34" height="13.01"/>
    <rect class="cls-17" x="131.21" y="208.67" width="4.47" height="8.61"/>
    <rect class="cls-7" x="121.99" y="227.4" width="2.34" height="13.01"/>
    <rect class="cls-17" x="121.02" y="235.17" width="4.47" height="8.61"/>
    <rect class="cls-7" x="189.78" y="256.55" width="2.35" height="13.01"/>
    <rect class="cls-17" x="188.81" y="264.31" width="4.47" height="8.61"/>
    <rect class="cls-7" x="132.18" y="256.55" width="2.35" height="13.01"/>
    <rect class="cls-17" x="131.21" y="264.31" width="4.47" height="8.61"/>
    <rect class="cls-7" x="196.44" y="227.4" width="2.34" height="13.01"/>
    <rect class="cls-17" x="195.47" y="235.17" width="4.47" height="8.61"/>
    <rect class="cls-17" x="187.73" y="208.67" width="4.47" height="8.61"/>
  </g>
</svg>